<?xml version="1.0" encoding="UTF-8" standalone="no"?>
<!-- Created with Inkscape (http://www.inkscape.org/) -->

<svg
   width="96.169334mm"
   height="22.587669mm"
   viewBox="0 0 96.169334 22.587669"
   version="1.1"
   id="svg5"
   xmlns="http://www.w3.org/2000/svg"
   xmlns:svg="http://www.w3.org/2000/svg">
  <defs
     id="defs2">
    <clipPath
       clipPathUnits="userSpaceOnUse"
       id="clipPath8026">
      <path
         style="font-weight:900;font-size:25.4px;font-family:Montserrat;-inkscape-font-specification:'Montserrat Heavy';display:none;fill:#ffffff;fill-opacity:1;fill-rule:evenodd;stroke-width:0;paint-order:stroke fill markers"
         d="m 36.127603,116.58184 c 0.197718,-0.34295 0.435901,-0.6727 0.787032,-0.88935 0.351131,-0.21665 0.770752,-0.33021 1.244886,-0.33021 0.474133,0 0.880382,0.11008 1.219046,0.33021 0.338667,0.2032 0.601282,0.49988 0.787551,0.88935 0.103357,0.18949 0.179692,0.40129 0.230476,0.63459 v 0 h -4.480346 c 0,0 0.1,-0.44144 0.211355,-0.63459 z"
         id="path8028" />
      <path
         id="lpe_path-effect8030"
         style="font-weight:900;font-size:25.4px;font-family:Montserrat;-inkscape-font-specification:'Montserrat Heavy';fill:#ffffff;fill-opacity:1;fill-rule:evenodd;stroke-width:0;paint-order:stroke fill markers"
         class="powerclip"
         d="m 25.23442,106.45089 h 25.519465 v 24.4017 H 25.23442 Z m 10.893183,10.13095 c -0.111355,0.19315 -0.211355,0.63459 -0.211355,0.63459 h 4.480346 v 0 c -0.05078,-0.2333 -0.127119,-0.4451 -0.230476,-0.63459 -0.186269,-0.38947 -0.448884,-0.68615 -0.787551,-0.88935 -0.338664,-0.22013 -0.744913,-0.33021 -1.219046,-0.33021 -0.474134,0 -0.893755,0.11356 -1.244886,0.33021 -0.351131,0.21665 -0.589314,0.5464 -0.787032,0.88935 z" />
    </clipPath>
  </defs>
  <g
     id="layer1"
     transform="translate(-7.223767,-106.76792)">
    <path
       style="font-weight:900;font-size:25.4px;font-family:Montserrat;-inkscape-font-specification:'Montserrat Heavy';fill:#0066ff;fill-opacity:1;fill-rule:evenodd;stroke-width:0;paint-order:stroke fill markers"
       d="m 97.005224,120.46457 -2.191819,-5.6936 h -4.503696 l 4.462069,10.74467 c -0.06695,0.081 -0.120648,0.13097 -0.191384,0.18402 -0.207051,0.16823 -0.504692,0.25235 -0.892917,0.25235 -0.258819,0 -0.530813,-0.0517 -0.815516,-0.1552 -0.271757,-0.10352 -0.517325,-0.23972 -0.737321,-0.40795 l -1.45608,3.00891 c 0.362348,0.2847 0.841057,0.51103 1.43634,0.67927 0.608213,0.18117 1.203496,0.2721 1.785833,0.2721 0.750573,0 1.436393,-0.11016 2.057553,-0.33016 0.634098,-0.21999 1.203741,-0.60175 1.708433,-1.14527 0.51763,-0.54351 0.970699,-1.30064 1.358924,-2.27121 l 4.367447,-10.83153 h -4.154183 l -2.233683,5.6936"
       id="path2210" />
    <path
       style="font-weight:900;font-size:25.4px;font-family:Montserrat;-inkscape-font-specification:'Montserrat Heavy';fill:#0066ff;fill-opacity:1;fill-rule:evenodd;stroke-width:0;paint-order:stroke fill markers"
       d="m 63.502759,114.57706 c -0.867034,0 -1.656211,0.20069 -2.367956,0.60186 -0.306126,0.17574 -0.583375,0.39219 -0.834866,0.64491 v 0 -1.05286 H 56.12672 v 10.61789 h 4.386799 v -4.98867 c 0,-0.53057 0.0713,-0.9508 0.213653,-1.26138 0.15529,-0.31058 0.355592,-0.5309 0.601467,-0.66031 0.258817,-0.14235 0.537228,-0.21326 0.834867,-0.21326 0.401165,0 0.718039,0.14222 0.950973,0.42691 0.232934,0.27176 0.349507,0.73765 0.349507,1.39763 v 5.29908 h 4.386799 v -6.05615 c 0,-1.1129 -0.193891,-2.01865 -0.582116,-2.71745 -0.375283,-0.69881 -0.892854,-1.20997 -1.552835,-1.53349 -0.659981,-0.33646 -1.397875,-0.50471 -2.213146,-0.50471 z"
       id="path2206" />
    <path
       style="font-weight:900;font-size:25.4px;font-family:Montserrat;-inkscape-font-specification:'Montserrat Heavy';fill:#0066ff;fill-opacity:1;fill-rule:evenodd;stroke-width:0;paint-order:stroke fill markers"
       d="m 49.895702,114.57706 c -1.216436,0 -2.297239,0.23275 -3.241918,0.69862 -0.944679,0.46586 -1.688589,1.11323 -2.232103,1.94144 -0.530573,0.82821 -0.795769,1.77922 -0.795769,2.85331 0,1.07409 0.265196,2.03152 0.795769,2.87267 0.543514,0.82821 1.287424,1.47557 2.232103,1.94144 0.944679,0.46587 2.025482,0.69861 3.241918,0.69861 1.294082,0 2.400527,-0.2784 3.319324,-0.83486 0.918798,-0.55645 1.55294,-1.3264 1.902343,-2.3099 l -3.397124,-1.66934 c -0.219994,0.49175 -0.4916,0.84788 -0.81512,1.06787 -0.31058,0.21999 -0.65349,0.32977 -1.028773,0.32977 -0.323521,0 -0.627969,-0.0777 -0.912667,-0.23302 -0.271756,-0.15529 -0.491685,-0.38803 -0.659915,-0.69861 -0.15529,-0.31058 -0.23261,-0.69876 -0.23261,-1.16463 0,-0.46587 0.07732,-0.84763 0.23261,-1.14528 0.16823,-0.31057 0.388159,-0.54372 0.659915,-0.69901 0.284698,-0.15529 0.589146,-0.2326 0.912667,-0.2326 0.375283,0 0.718193,0.10976 1.028773,0.32975 0.32352,0.22 0.595126,0.57613 0.81512,1.06788 l 3.397124,-1.66973 c -0.349403,-0.98351 -0.983545,-1.75346 -1.902343,-2.30991 -0.918797,-0.55645 -2.025242,-0.83447 -3.319324,-0.83447 z"
       id="path2204" />
    <path
       style="font-weight:900;font-size:25.4px;font-family:Montserrat;-inkscape-font-specification:'Montserrat Heavy';fill:#0066ff;fill-opacity:1;fill-rule:evenodd;stroke-width:0;paint-order:stroke fill markers"
       d="m 36.041304,119.98525 h 9.636621 c 0.01693,-0.2032 0.03371,-0.42336 0.05064,-0.66042 0.01693,-0.254 0.02532,-0.48255 0.02532,-0.68575 0,-1.5748 -0.355402,-2.89575 -1.066601,-3.96255 -0.694266,-1.0668 -1.625746,-1.87091 -2.794145,-2.41277 -1.151465,-0.54187 -2.412666,-0.81287 -3.784265,-0.81287 h 10e-7 c -1.490132,0 -2.836765,0.30455 -4.03903,0.91415 -1.185332,0.6096 -2.124683,1.45669 -2.818949,2.54042 -0.677333,1.08373 -1.016476,2.32815 -1.016476,3.73362 0,1.3716 0.347531,2.60764 1.041797,3.7083 0.694266,1.08373 1.667687,1.93869 2.920752,2.56522 1.269999,0.62653 2.751875,0.93999 4.445207,0.93999 1.388532,0 2.573723,-0.18609 3.555855,-0.55862 0.999066,-0.38947 1.837243,-0.94825 2.514575,-1.67638 l -2.997233,-3.02256 c -0.457199,0.33867 -0.897517,0.59238 -1.320849,0.76171 -0.4064,0.16934 -0.931115,0.25425 -1.574581,0.25425 -0.626533,0 -1.160153,-0.10169 -1.600419,-0.30489 -0.440267,-0.22013 -0.778893,-0.54198 -1.015959,-0.96532 -0.06287,-0.11226 -0.116067,-0.23135 -0.162264,-0.35553 z"
       id="path2202"
       clip-path="url(#clipPath8026)"
       transform="matrix(0.76422178,0,0,0.76422178,7.8442805,29.40386)" />
    <path
       style="font-weight:900;font-size:25.4px;font-family:Montserrat;-inkscape-font-specification:'Montserrat Heavy';fill:#ec9500;fill-opacity:1;fill-rule:evenodd;stroke-width:0;paint-order:stroke fill markers"
       d="m 22.284465,118.92474 c 0,-3.43617 1.111647,-4.52117 3.783635,-4.52117 h 4.398637 c 0,2.86057 -1.478293,4.50807 -4.31445,4.50807 z"
       id="path2198" />
    <path
       style="font-weight:900;font-size:25.4px;font-family:Montserrat;-inkscape-font-specification:'Montserrat Heavy';fill:#0066ff;fill-opacity:1;fill-rule:evenodd;stroke-width:0;paint-order:stroke fill markers"
       d="m 15.045686,114.72967 v 14.62591 c 4.479741,0 5.99395,-2.3285 5.99395,-6.0384 v -3.40841 -3.53713 c 0,-2.10956 1.128511,-3.50275 3.829641,-3.50275 3.537973,0 5.612793,-1.89287 5.612793,-5.05034 h -9.548937 c -2.575817,0 -5.887447,2.18584 -5.887447,6.91112 z"
       id="path2196" />
    <path
       style="font-weight:900;font-size:25.4px;font-family:Montserrat;-inkscape-font-specification:'Montserrat Heavy';fill:#0066ff;fill-opacity:1;fill-rule:evenodd;stroke-width:0;paint-order:stroke fill markers"
       d="m 87.844528,115.35364 v -0.0193 c 0,-0.42705 0.09695,-0.73791 0.291061,-0.93203 0.194113,-0.19411 0.446489,-0.29105 0.757062,-0.29105 0.181174,0 0.355836,0.0261 0.524065,0.0778 0.168228,0.0517 0.323663,0.10985 0.466007,0.17455 l 1.04813,-3.04761 c -0.323526,-0.18118 -0.724521,-0.31057 -1.203336,-0.38821 -0.465862,-0.0906 -0.931755,-0.13586 -1.397624,-0.13586 v -3e-5 c -1.514076,0 -2.685414,0.40781 -3.51363,1.22308 -0.840612,1.06901 -1.210898,2.27337 -1.218405,3.34082 l -1.460353,-0.002 v 3.20282 h 1.506318 l -0.05023,6.83256 h 4.386794 l 0.0061,-6.83256 h 2.168006 v -3.20282 h -2.309906"
       id="path1152" />
    <path
       id="rect1206"
       style="fill:#ec9500;fill-opacity:1;fill-rule:evenodd;stroke-width:0;paint-order:stroke fill markers"
       d="m 7.2237668,107.90111 h 9.7209762 c -1.397514,0.63308 -3.02238,2.49126 -3.054008,4.52095 l -2.71366,5e-5 c -3.0506619,0 -3.9533082,-2.01408 -3.9533082,-4.521 z" />
    <g
       id="g20869"
       style="fill:#ec9500;fill-opacity:1">
      <circle
         style="fill:#ec9500;fill-opacity:1;fill-rule:evenodd;stroke:none;stroke-width:0;stroke-opacity:1;paint-order:stroke fill markers"
         id="path15346"
         cx="75.055122"
         cy="119.60513"
         r="4.3834338" />
      <circle
         style="fill:#ec9500;fill-opacity:1;fill-rule:evenodd;stroke:none;stroke-width:0;stroke-opacity:1;paint-order:stroke fill markers"
         id="path16074"
         cx="81.54081"
         cy="120.85753"
         r="1.0064006" />
      <circle
         style="fill:#ec9500;fill-opacity:1;fill-rule:evenodd;stroke:none;stroke-width:0;stroke-opacity:1;paint-order:stroke fill markers"
         id="path16802"
         cx="68.681252"
         cy="112.6945"
         r="1.8115211" />
      <circle
         style="fill:#ec9500;fill-opacity:1;fill-rule:evenodd;stroke:none;stroke-width:0;stroke-opacity:1;paint-order:stroke fill markers"
         id="path17530"
         cx="79.035995"
         cy="109.89894"
         r="3.1310241" />
      <circle
         style="fill:#ec9500;fill-opacity:1;fill-rule:evenodd;stroke:none;stroke-width:0;stroke-opacity:1;paint-order:stroke fill markers"
         id="path18258"
         cx="79.393822"
         cy="126.67229"
         r="1.6102409" />
      <circle
         style="fill:#ec9500;fill-opacity:1;fill-rule:evenodd;stroke:none;stroke-width:0;stroke-opacity:1;paint-order:stroke fill markers"
         id="path18986"
         cx="71.029518"
         cy="126.67229"
         r="2.5942769" />
      <rect
         style="fill:#ec9500;fill-opacity:1;fill-rule:evenodd;stroke:none;stroke-width:0;stroke-opacity:1;paint-order:stroke fill markers"
         id="rect19316"
         width="0.53674698"
         height="5.0543675"
         x="113.09914"
         y="75.851425"
         transform="rotate(21.207683)" />
      <rect
         style="fill:#ec9500;fill-opacity:1;fill-rule:evenodd;stroke:none;stroke-width:0;stroke-opacity:1;paint-order:stroke fill markers"
         id="rect19316-8"
         width="0.53674698"
         height="5.0543675"
         x="-24.266781"
         y="130.69917"
         transform="rotate(-41.837436)" />
      <rect
         style="fill:#ec9500;fill-opacity:1;fill-rule:evenodd;stroke:none;stroke-width:0;stroke-opacity:1;paint-order:stroke fill markers"
         id="rect19316-4"
         width="0.53674698"
         height="5.0543675"
         x="125.96897"
         y="65.854065"
         transform="rotate(31.140362)" />
      <rect
         style="fill:#ec9500;fill-opacity:1;fill-rule:evenodd;stroke:none;stroke-width:0;stroke-opacity:1;paint-order:stroke fill markers"
         id="rect19316-4-0"
         width="0.53674698"
         height="5.0543675"
         x="2.7120693"
         y="144.30785"
         transform="rotate(-30.920246)" />
      <rect
         style="fill:#ec9500;fill-opacity:1;fill-rule:evenodd;stroke:none;stroke-width:0;stroke-opacity:1;paint-order:stroke fill markers"
         id="rect19316-4-0-4"
         width="0.53674698"
         height="5.0543675"
         x="-108.57944"
         y="92.322983"
         transform="rotate(-82.001893)" />
    </g>
  </g>
</svg>
